<?xml version="1.0" standalone="no"?>
<!DOCTYPE svg PUBLIC "-//W3C//DTD SVG 20010904//EN"
 "http://www.w3.org/TR/2001/REC-SVG-20010904/DTD/svg10.dtd">
<svg version="1.0" xmlns="http://www.w3.org/2000/svg"
 width="526.000000pt" height="268.000000pt" viewBox="0 0 526.000000 268.000000"
 preserveAspectRatio="xMidYMid meet">

<g transform="translate(0.000000,268.000000) scale(0.100000,-0.100000)"
fill="#000000" stroke="none">
<path d="M1350 2576 c-227 -41 -375 -167 -420 -356 -21 -88 -17 -252 8 -341
l21 -76 -20 -62 c-21 -69 -25 -187 -8 -260 25 -109 116 -236 215 -298 24 -15
44 -30 44 -33 0 -9 -109 -85 -121 -85 -7 0 -19 20 -27 45 -30 92 -122 192
-215 236 -80 36 -148 47 -286 42 -124 -4 -128 -4 -211 -45 -93 -45 -168 -109
-198 -170 -36 -71 -42 -134 -42 -457 0 -280 2 -321 20 -391 24 -95 54 -148
113 -202 89 -82 180 -113 337 -113 168 0 296 41 454 143 l82 54 43 -34 c57
-43 126 -63 220 -63 113 0 188 15 263 54 67 34 67 34 85 13 61 -69 223 -75
293 -12 15 13 20 11 51 -21 54 -57 97 -74 184 -74 42 0 86 5 97 11 12 6 62 12
113 13 83 1 97 4 158 35 l67 34 23 -20 c44 -40 83 -53 164 -53 58 0 86 5 108
19 29 18 31 18 70 -2 23 -11 69 -22 108 -25 80 -6 139 13 182 58 l28 29 41
-22 c33 -17 58 -21 126 -21 47 0 94 1 105 3 11 2 47 -4 80 -13 73 -20 285 -22
366 -3 50 12 59 12 90 -5 28 -16 51 -18 129 -16 96 3 138 16 212 65 l28 18 57
-57 c67 -66 117 -84 216 -76 75 6 133 34 198 95 94 88 129 207 129 436 -1 233
-46 486 -107 599 -37 68 -127 159 -189 189 -43 21 -62 24 -164 24 -92 0 -122
-4 -148 -18 -44 -24 -174 -148 -218 -208 l-35 -48 -58 29 c-32 17 -66 30 -75
30 -22 0 -21 5 12 53 61 89 92 218 92 377 0 131 5 143 82 178 82 37 135 97
168 188 22 61 25 85 25 204 0 133 -1 137 -33 202 -78 159 -219 212 -567 213
-174 0 -234 -9 -322 -46 -54 -23 -120 -83 -141 -128 l-17 -36 -125 -6 c-80 -4
-140 -13 -166 -23 -39 -16 -44 -16 -130 9 -105 31 -280 44 -361 27 -42 -9 -58
-9 -87 3 -51 22 -132 19 -183 -6 -23 -11 -60 -41 -82 -65 l-39 -44 -26 34
c-54 71 -134 95 -251 74 -39 -7 -41 -6 -80 44 -47 61 -114 108 -193 139 -72
27 -251 35 -362 15z m309 -55 c33 -10 80 -30 104 -44 51 -30 121 -103 143
-150 l16 -34 57 23 c68 28 94 29 147 5 50 -23 92 -75 114 -142 l17 -50 13 33
c21 53 81 133 117 158 47 32 110 37 165 12 42 -18 50 -19 99 -6 102 27 242 13
390 -36 l62 -21 48 21 c49 21 229 44 299 38 31 -3 35 0 41 29 10 50 53 99 112
127 138 68 415 74 639 15 95 -26 154 -73 195 -157 26 -53 28 -66 28 -177 0
-101 -3 -127 -21 -165 -39 -83 -63 -104 -194 -164 -43 -20 -53 -59 -61 -226
-7 -173 -27 -251 -80 -325 -46 -64 -99 -90 -184 -90 -84 1 -142 24 -204 83
-41 39 -44 40 -66 26 -77 -50 -368 -81 -462 -50 -28 9 -60 28 -73 41 l-23 24
-31 -23 c-47 -35 -56 -36 -220 -37 -155 -1 -221 9 -288 42 -33 17 -37 17 -50
2 -7 -9 -32 -25 -56 -35 -60 -27 -124 -12 -187 44 l-45 40 -44 -40 c-107 -98
-219 -109 -296 -27 l-22 24 -50 -31 c-82 -50 -188 -79 -313 -85 -177 -9 -305
34 -404 136 -108 110 -145 249 -102 390 12 38 26 73 31 76 6 4 5 16 -4 33 -8
15 -19 47 -26 72 -75 276 28 512 260 595 131 48 304 59 409 26z m-1104 -1151
c-3 -5 -11 -10 -16 -10 -6 0 -7 5 -4 10 3 6 11 10 16 10 6 0 7 -4 4 -10z
m4140 0 c-3 -5 -12 -10 -18 -10 -7 0 -6 4 3 10 19 12 23 12 15 0z m-4005 -30
c118 -22 230 -100 283 -197 14 -27 33 -79 43 -118 9 -38 18 -71 19 -72 1 -2
29 25 63 58 39 38 88 72 130 92 61 29 78 32 183 35 137 5 199 -9 278 -62 28
-19 51 -31 51 -26 0 14 88 94 118 107 15 7 56 12 92 12 77 1 128 -20 181 -72
l37 -36 18 21 c11 11 31 26 46 34 39 20 147 20 186 0 l32 -16 -10 26 c-8 20
-7 25 2 22 7 -3 13 -10 13 -17 0 -6 6 -16 14 -20 7 -5 11 -13 7 -19 -3 -6 -3
-13 2 -16 9 -6 104 69 97 76 -3 3 5 13 16 24 22 19 22 19 11 -1 -10 -19 -7
-20 84 -17 86 4 100 2 149 -22 29 -15 68 -43 85 -62 l31 -36 37 37 c47 47 68
55 145 55 73 0 127 -13 158 -39 22 -18 23 -17 68 30 84 86 218 94 289 17 l23
-25 47 23 c40 20 63 23 154 24 169 0 296 -33 370 -99 l36 -31 33 52 c19 29 56
77 82 106 36 40 45 57 38 66 -14 17 -1 29 15 15 19 -16 80 36 76 64 -2 12 0
17 7 12 6 -3 8 -11 5 -17 -5 -8 -1 -9 12 -4 118 48 250 25 345 -61 46 -41 94
-115 119 -181 52 -137 89 -466 71 -627 -15 -126 -36 -179 -97 -240 -63 -64
-112 -88 -191 -93 -89 -6 -128 10 -199 85 l-62 64 -58 -41 c-103 -72 -205 -88
-289 -46 -48 25 -49 25 -114 9 -101 -26 -298 -22 -377 6 -48 17 -67 19 -88 11
-55 -20 -139 -12 -202 20 l-59 30 -25 -29 c-44 -50 -89 -71 -151 -71 -61 0
-110 13 -148 40 -24 17 -26 17 -62 -7 -73 -48 -162 -40 -245 24 -46 35 -48 35
-73 19 -78 -51 -134 -68 -216 -65 -58 2 -90 -2 -117 -14 -80 -36 -154 -17
-241 63 l-50 46 -51 -34 c-48 -32 -55 -34 -118 -30 -61 3 -70 7 -118 47 l-51
43 -22 -20 c-12 -12 -49 -33 -82 -48 -51 -24 -77 -28 -171 -32 -135 -5 -190
10 -259 70 l-46 41 -32 -24 c-140 -103 -268 -162 -406 -186 -214 -38 -416 45
-487 201 -39 87 -46 165 -39 481 8 336 15 366 92 441 50 49 166 110 233 123
63 12 168 13 230 1z m-423 -65 c0 -8 -6 -15 -14 -15 -17 0 -17 17 0 23 6 3 12
6 13 6 0 1 1 -6 1 -14z m2363 -65 c0 -5 -5 -10 -11 -10 -5 0 -7 5 -4 10 3 6 8
10 11 10 2 0 4 -4 4 -10z m-130 -110 c-6 -11 -13 -20 -16 -20 -2 0 0 9 6 20 6
11 13 20 16 20 2 0 0 -9 -6 -20z"/>
<path d="M3720 2466 c-56 -12 -98 -35 -137 -78 -26 -28 -58 -121 -49 -144 5
-14 4 -15 -8 -5 -22 18 -241 15 -327 -5 -37 -8 -80 -24 -94 -36 l-25 -20 -68
26 c-164 63 -340 73 -405 23 l-33 -25 -32 29 c-27 24 -41 29 -87 29 -49 0 -57
-3 -88 -35 -23 -24 -43 -61 -60 -113 -21 -61 -30 -76 -44 -74 -38 6 -69 5 -95
-2 l-28 -8 0 54 c0 127 -52 189 -142 169 -47 -11 -92 -50 -120 -106 -18 -35
-22 -37 -28 -20 -4 11 -11 45 -15 75 -12 97 -75 174 -185 231 -92 46 -339 27
-445 -36 -58 -34 -120 -98 -147 -153 -20 -41 -22 -61 -21 -152 1 -73 8 -125
22 -169 11 -35 17 -69 15 -76 -3 -7 2 -15 11 -19 13 -5 15 -13 10 -33 -4 -16
-10 -30 -13 -33 -18 -13 -32 -67 -32 -124 0 -199 150 -346 369 -363 152 -11
297 28 382 104 48 44 52 45 62 27 19 -36 86 -92 116 -99 62 -13 124 28 197
129 l21 29 38 -42 c78 -86 161 -104 235 -50 35 26 47 29 59 20 73 -53 168 -74
325 -69 140 3 163 13 201 81 l21 36 41 -48 c23 -26 57 -55 76 -65 74 -34 289
-12 397 42 43 21 62 39 85 78 l30 50 23 -72 c16 -53 33 -85 65 -120 42 -46 46
-48 108 -51 51 -3 70 0 96 16 69 43 116 169 133 356 17 184 19 194 38 191 9
-2 25 6 35 16 12 12 14 19 5 17 -30 -4 -48 2 -48 14 0 16 25 29 100 51 61 17
116 62 128 105 4 14 7 80 7 146 0 105 -3 126 -24 168 -30 61 -59 83 -140 107
-125 37 -397 51 -511 26z m-2082 -74 c101 -53 140 -111 162 -241 11 -60 10
-65 -11 -87 -17 -19 -33 -24 -68 -24 -25 1 -57 7 -71 15 -29 17 -18 20 12 4
18 -10 20 -9 15 5 -4 9 -2 16 3 16 20 0 9 31 -15 42 -21 9 -23 14 -13 26 11
13 9 14 -12 7 -14 -4 -22 -4 -18 0 9 10 -114 73 -159 81 -41 8 -86 -3 -80 -19
2 -7 -2 -20 -11 -29 -13 -16 -12 -20 18 -48 18 -17 44 -33 59 -36 169 -37 345
-135 386 -215 20 -39 45 -166 44 -224 -1 -27 -3 -42 -6 -32 -2 9 -9 15 -14 12
-5 -4 -9 -1 -9 5 0 6 -22 -12 -49 -42 -27 -29 -67 -64 -90 -78 -47 -29 -55
-48 -10 -25 35 18 54 11 26 -10 -12 -8 -14 -15 -8 -20 6 -3 11 -2 11 3 0 6 7
12 15 16 13 5 13 3 0 -18 -14 -21 -14 -24 0 -29 8 -4 15 -1 15 5 0 6 3 8 7 5
3 -4 12 -2 20 4 7 6 13 9 13 6 0 -12 -116 -81 -167 -98 -117 -42 -222 -34
-348 26 -106 51 -134 85 -156 194 -13 63 -16 97 -10 114 13 33 68 74 105 79
l29 3 -38 25 c-21 14 -53 46 -71 73 -61 89 -82 274 -40 355 38 73 128 136 239
167 80 23 240 15 295 -13z m2442 12 c163 -20 198 -37 231 -109 30 -64 22 -143
-17 -182 -12 -13 -30 -15 -86 -10 -67 6 -72 5 -98 -22 -34 -33 -46 -87 -60
-271 -19 -239 -43 -343 -88 -376 -9 -7 -14 -15 -10 -19 10 -10 27 3 49 39 10
17 19 27 19 21 0 -5 -14 -30 -30 -55 -27 -40 -28 -46 -14 -57 14 -10 12 -14
-11 -29 -24 -16 -30 -16 -53 -3 -14 8 -34 30 -44 50 -34 67 -40 149 -34 449 3
157 3 290 -2 296 -4 6 -26 15 -49 19 -23 3 -57 15 -77 24 -24 13 -33 14 -29 5
6 -17 66 -54 87 -54 9 0 16 -4 16 -9 0 -6 -12 -6 -31 -1 -18 5 -40 5 -54 0
-35 -13 -45 12 -49 118 -5 122 18 158 119 183 45 11 196 8 315 -7z m-1570
-202 c42 -43 54 -135 47 -362 -8 -250 -34 -350 -101 -391 -17 -10 -42 -19 -54
-19 -24 0 -61 35 -62 58 0 7 -4 10 -10 7 -6 -3 -7 1 -4 9 3 9 1 16 -5 16 -5 0
-16 10 -22 22 l-12 21 28 -21 c15 -12 35 -22 44 -22 10 0 4 8 -15 19 -17 10
-40 30 -51 45 -11 14 -24 22 -28 18 -5 -4 -5 -2 -2 5 4 6 0 24 -8 40 -9 15
-20 40 -25 56 -5 15 -15 27 -21 27 -6 0 -8 -7 -5 -16 4 -10 2 -13 -6 -8 -8 5
-9 2 -5 -9 3 -10 3 -17 -2 -17 -4 0 -23 -28 -41 -62 -18 -35 -46 -79 -61 -99
-16 -20 -26 -39 -22 -43 3 -3 0 -24 -7 -46 -11 -34 -18 -40 -40 -40 -40 0 -82
36 -75 64 4 14 3 17 -3 8 -10 -15 -26 17 -37 76 -8 42 -9 322 0 398 15 141 53
254 91 268 34 13 64 6 80 -19 14 -22 16 -47 12 -166 -2 -77 -1 -142 4 -145 5
-3 32 20 61 50 29 31 61 56 71 56 9 0 43 -24 74 -54 l57 -54 1 106 c1 123 20
180 74 225 39 34 45 34 80 -1z m355 8 c140 -23 218 -60 240 -114 16 -41 5
-163 -15 -176 -18 -11 -65 -11 -100 0 -21 7 -22 8 -5 9 17 1 17 3 5 11 -13 9
-13 10 0 10 11 1 10 4 -4 15 -25 19 -132 20 -168 1 -22 -12 -26 -12 -21 0 9
25 88 38 161 26 29 -5 55 -6 57 -2 7 11 -123 28 -163 23 -36 -6 -74 -46 -65
-69 4 -10 22 -14 62 -14 70 0 117 -13 147 -41 20 -18 22 -28 17 -77 -6 -67
-21 -83 -77 -80 -36 1 -37 2 -10 5 22 3 34 11 37 25 5 19 3 20 -60 13 -68 -7
-113 -22 -113 -37 0 -4 -4 -8 -10 -8 -5 0 -10 5 -10 10 0 19 83 50 132 50 44
0 106 16 97 24 -2 3 -41 0 -87 -5 -77 -9 -140 -29 -143 -47 -5 -24 -5 -69 -1
-80 4 -10 28 -12 116 -6 106 6 112 5 131 -16 20 -22 21 -39 16 -155 -4 -93
-41 -111 -215 -102 -187 10 -221 25 -231 107 l-5 44 26 -25 27 -24 -23 32
c-12 17 -27 56 -31 85 -12 72 6 287 36 434 30 146 44 164 133 164 31 0 84 -5
117 -10z m685 -6 c45 -18 70 -55 70 -102 0 -37 -24 -49 -115 -57 -98 -9 -142
-24 -171 -58 -45 -54 -25 -66 86 -48 68 11 81 11 109 -3 21 -12 31 -24 31 -40
0 -25 -29 -43 -132 -80 -50 -18 -98 -65 -98 -96 0 -10 9 -28 19 -41 l20 -24
100 34 c126 44 143 39 162 -43 10 -48 10 -58 -5 -80 -9 -14 -29 -32 -44 -40
-37 -19 -144 -43 -224 -51 -89 -9 -131 5 -152 49 -23 49 -20 53 13 22 23 -22
40 -28 83 -31 74 -4 220 27 263 56 50 34 43 44 -9 15 -24 -14 -70 -29 -102
-35 -77 -15 -181 -14 -190 1 -5 8 -2 9 10 5 10 -4 15 -3 11 4 -4 5 -15 7 -25
4 -15 -5 -25 4 -46 36 -18 30 -28 38 -34 29 -18 -29 -39 126 -46 335 -6 170
-1 189 56 217 77 38 289 50 360 22z m770 -124 c-8 -46 -35 -80 -62 -80 -13 0
-18 8 -18 30 0 24 -4 30 -22 31 -13 1 -5 5 18 10 23 6 50 19 59 29 27 30 33
24 25 -20z m-691 -47 c0 -11 -3 -13 -6 -5 -2 6 -10 9 -15 6 -7 -4 -8 -2 -4 4
11 18 26 14 25 -5z m-19 -48 c-7 -8 -18 -15 -24 -15 -6 0 -2 7 8 15 25 19 32
19 16 0z m-650 -51 c0 -2 -7 -4 -15 -4 -8 0 -15 4 -15 10 0 5 7 7 15 4 8 -4
15 -8 15 -10z m684 -419 c13 -34 -29 -72 -85 -79 -38 -4 -71 3 -63 15 3 5 -3
9 -13 10 -10 0 0 6 22 13 22 7 58 22 80 34 48 26 51 26 59 7z m-368 -68 c4 -4
-2 -7 -14 -7 -12 0 -22 4 -22 9 0 10 26 9 36 -2z m-10 -32 c-18 -18 -22 -19
-29 -2 -3 8 4 14 20 15 22 2 23 0 9 -13z"/>
<path d="M1244 1856 c1 -31 35 -76 57 -76 13 0 67 -29 94 -51 37 -29 107 -51
144 -44 26 5 31 9 20 16 -12 8 -11 12 6 24 17 13 21 29 16 63 -3 20 -66 42
-143 51 -47 5 -110 19 -141 29 l-55 20 2 -32z m203 -122 c-3 -3 -12 -4 -19 -1
-8 3 -5 6 6 6 11 1 17 -2 13 -5z"/>
<path d="M3866 1462 c10 -19 27 -38 37 -43 29 -16 19 5 -19 42 l-37 34 19 -33z"/>
<path d="M3871 1403 c6 -18 16 -37 23 -42 22 -19 12 23 -12 49 l-22 24 11 -31z"/>
<path d="M1933 1511 c0 -23 5 -28 23 -28 l23 0 -22 28 c-11 16 -21 29 -22 29
-1 0 -2 -13 -2 -29z"/>
<path d="M2662 1495 c11 -11 161 -35 216 -35 32 1 70 6 85 13 25 11 15 12 -80
12 -59 0 -135 4 -167 8 -33 4 -57 5 -54 2z"/>
<path d="M2913 1442 c-13 -2 -23 -10 -23 -18 0 -19 39 -18 47 1 7 20 4 22 -24
17z"/>
<path d="M3175 1707 c1 -12 7 -31 13 -42 10 -17 11 -15 6 15 -8 41 -20 60 -19
27z"/>
<path d="M510 1288 c-112 -17 -205 -81 -252 -171 -18 -35 -23 -69 -31 -212 -5
-93 -13 -171 -18 -173 -4 -2 -6 -9 -3 -15 2 -7 8 -85 12 -174 8 -146 11 -166
36 -217 33 -67 91 -119 154 -137 76 -22 252 -17 347 9 132 38 257 115 306 188
14 22 15 21 59 -34 27 -32 67 -68 100 -86 52 -29 61 -31 160 -30 124 0 193 22
262 83 l43 39 56 -53 c89 -85 152 -87 229 -7 l45 47 70 -71 c102 -104 157
-117 230 -53 32 28 36 29 51 15 48 -48 164 -23 273 58 l34 25 54 -49 c87 -80
158 -85 229 -18 l31 29 51 -35 c55 -37 113 -52 162 -41 31 7 93 60 120 103
l15 23 35 -27 c86 -65 168 -80 228 -44 25 15 37 18 47 10 6 -5 39 -19 71 -31
84 -29 242 -29 351 1 l80 21 38 -25 c78 -53 209 -23 316 72 l47 42 26 -41 c67
-100 130 -149 194 -149 86 0 194 74 230 157 48 112 54 327 14 538 -39 205 -74
288 -157 364 -59 55 -105 73 -181 74 -49 1 -70 -5 -106 -26 -63 -37 -158 -135
-215 -222 -75 -114 -73 -112 -79 -97 -15 33 -67 80 -116 104 -80 39 -152 53
-273 53 -95 0 -116 -3 -152 -23 -23 -12 -47 -32 -54 -43 -11 -21 -12 -20 -33
16 -34 61 -67 80 -133 77 -40 -2 -68 -9 -90 -25 -35 -23 -78 -98 -75 -130 1
-14 -9 -7 -35 23 -45 52 -102 79 -166 80 -86 0 -149 -44 -178 -125 -16 -43
-25 -44 -34 -6 -9 41 -81 120 -130 142 -52 24 -148 25 -195 1 -19 -9 -35 -22
-35 -29 0 -6 -4 -15 -9 -20 -5 -5 -6 -3 -2 5 4 6 4 12 -1 12 -4 0 -24 -22 -43
-50 -19 -27 -38 -49 -42 -50 -4 0 -10 10 -14 23 -9 30 -41 69 -67 84 -30 17
-103 16 -140 -2 -32 -15 -77 -70 -77 -93 0 -7 -4 -12 -10 -12 -5 0 -10 6 -10
14 0 23 -79 104 -123 125 -108 52 -220 1 -272 -124 l-17 -38 -17 27 c-22 33
-73 72 -131 99 -62 29 -253 31 -319 4 -59 -24 -133 -76 -125 -88 3 -5 0 -8 -8
-7 -7 2 -12 -3 -10 -10 1 -8 -2 -11 -7 -8 -5 3 -25 -12 -43 -35 l-35 -41 -36
23 c-31 20 -37 30 -37 60 0 85 -52 196 -113 243 -50 38 -138 75 -193 81 -98
11 -110 11 -164 3z m4051 -41 c-9 -12 2 -13 63 -9 121 8 196 -28 240 -115 58
-115 93 -277 122 -562 9 -97 11 -148 4 -155 -5 -5 -10 -6 -10 -2 0 5 -22 -20
-49 -56 -83 -110 -155 -125 -210 -44 -26 37 -28 44 -16 65 l12 24 12 -29 11
-29 -4 27 c-1 15 2 29 8 32 7 3 6 8 -3 14 -8 6 -11 17 -8 27 4 9 3 14 -2 11
-5 -3 -8 6 -8 21 0 15 -6 29 -12 31 -6 2 -11 9 -11 15 0 15 -41 57 -56 57 -17
0 -72 -47 -86 -74 -11 -20 -10 -20 8 -6 19 14 19 14 0 -7 -10 -13 -23 -20 -29
-16 -5 3 -7 1 -4 -4 8 -13 -18 -37 -31 -29 -6 3 -9 -2 -8 -11 0 -9 -5 -18 -13
-21 -9 -3 -11 0 -6 8 6 9 2 9 -16 0 -34 -18 -38 -24 -11 -16 30 10 28 -5 -5
-36 -68 -63 -150 -76 -201 -33 -16 14 -32 37 -35 52 -7 36 28 166 59 218 24
41 34 74 13 45 -20 -29 2 52 37 132 35 83 61 132 131 246 31 52 45 88 49 124
5 40 3 49 -8 43 -7 -3 7 12 31 34 43 40 64 54 42 28z m-3891 -17 c70 -16 123
-42 149 -76 37 -47 61 -129 61 -209 l0 -75 70 -45 c60 -39 70 -50 81 -87 13
-51 7 -154 -11 -189 -8 -13 -14 -34 -15 -46 0 -12 -11 -34 -25 -48 -24 -26
-44 -33 -38 -14 2 6 7 10 12 9 9 -2 46 40 46 52 0 5 -18 -5 -40 -22 -22 -17
-40 -35 -40 -40 0 -5 -3 -17 -6 -27 -6 -15 -4 -16 7 -6 7 7 17 13 23 13 5 0
-8 -13 -30 -29 -163 -120 -409 -167 -512 -98 -85 56 -101 135 -102 521 0 206
12 326 35 356 7 8 16 22 20 30 8 13 7 13 -10 0 -13 -10 -16 -11 -11 -2 5 8 21
22 38 31 24 15 48 18 136 16 59 -2 132 -8 162 -15z m2866 -188 c31 -41 84
-339 84 -474 0 -90 -15 -134 -70 -200 -35 -43 -59 -47 -108 -20 -45 24 -103
82 -96 94 4 6 3 8 -3 5 -5 -3 -17 3 -27 14 -17 20 -17 21 2 15 26 -9 36 19 17
47 -18 26 -20 41 -3 31 7 -4 2 7 -11 24 -12 18 -27 29 -33 26 -7 -4 -8 -2 -4
5 9 14 -12 43 -25 35 -5 -3 -6 1 -3 9 3 8 -7 27 -21 43 -15 16 -23 22 -19 14
6 -12 4 -13 -7 -2 -20 18 -28 15 -22 -10 11 -55 27 -116 39 -156 22 -66 18
-123 -12 -176 -31 -55 -58 -76 -99 -76 -38 0 -81 39 -106 96 -47 105 -64 387
-30 487 11 30 17 58 14 60 -19 19 72 87 117 87 40 0 101 -42 185 -125 46 -47
88 -85 94 -85 6 0 11 21 11 50 0 51 -11 64 -29 33 -8 -14 -10 -8 -10 27 0 46
8 67 45 113 39 48 98 52 130 9z m-1556 1 c40 -28 67 -63 106 -138 43 -82 72
-125 84 -125 4 0 13 30 20 68 22 132 77 196 139 161 45 -25 53 -53 47 -169 -7
-140 -33 -312 -58 -380 -10 -30 -22 -64 -24 -75 -3 -11 -18 -38 -33 -60 -22
-32 -34 -40 -61 -42 -19 -2 -42 3 -50 10 -43 35 -129 172 -116 185 3 3 6 0 6
-7 0 -7 5 -9 10 -6 9 6 14 -8 11 -27 0 -5 6 -8 15 -8 15 0 15 2 0 25 -10 14
-19 39 -21 56 -4 36 -83 240 -97 254 -8 7 -9 6 -4 -2 3 -6 1 -13 -5 -15 -7 -2
-10 -46 -10 -128 1 -191 -36 -289 -110 -290 -74 -1 -117 105 -105 255 14 167
81 389 133 441 39 39 83 45 123 17z m758 -7 c56 -29 86 -77 127 -203 58 -175
85 -348 65 -409 -18 -54 -58 -112 -84 -121 -39 -13 -88 5 -85 31 3 27 -2 47
-10 41 -5 -3 -13 -1 -16 5 -4 6 -1 9 6 8 6 -2 14 3 17 11 3 9 0 11 -8 6 -8 -5
-11 -4 -7 2 4 6 0 19 -8 29 -27 36 -15 33 23 -4 22 -23 26 -25 11 -7 -14 16
-36 44 -48 62 -31 46 -59 52 -88 19 -13 -15 -21 -32 -17 -37 8 -13 -16 -40
-29 -32 -6 3 -7 1 -3 -6 11 -17 -61 -101 -100 -117 -49 -21 -82 -17 -110 11
-24 24 -25 30 -19 88 15 136 66 306 134 447 33 69 49 126 31 115 -17 -11 -11
11 11 39 11 14 24 24 27 22 4 -2 25 0 47 4 64 12 104 11 133 -4z m1299 -10
c141 -34 169 -98 88 -203 -25 -32 -53 -69 -62 -83 -9 -14 -48 -57 -86 -97 -96
-98 -91 -108 47 -98 97 6 106 5 125 -14 34 -34 27 -74 -21 -124 -37 -37 -47
-43 -68 -36 -25 9 -25 9 2 5 15 -2 25 0 23 4 -3 4 -44 5 -92 3 -114 -7 -213 9
-288 46 -37 19 -51 23 -37 11 47 -39 133 -62 252 -70 63 -4 97 -8 75 -10 -65
-6 -156 1 -218 15 -31 7 -55 9 -51 4 7 -12 -3 -11 -26 1 -13 7 -21 7 -25 0 -4
-6 -3 -10 2 -9 22 4 35 -2 30 -15 -5 -11 6 -17 41 -22 26 -5 39 -10 30 -12
-28 -6 -127 27 -150 50 -25 25 -21 63 17 145 19 42 54 85 145 174 66 65 120
125 120 133 0 19 -10 25 -64 35 -35 6 -50 5 -63 -6 -10 -8 -12 -12 -6 -8 9 4
11 1 7 -10 -13 -33 -106 6 -131 55 -10 20 -8 31 12 69 23 46 47 73 75 85 27
11 224 -1 297 -18z m-2481 -24 c83 -43 139 -142 151 -268 4 -48 1 -77 -17
-135 -26 -82 -27 -85 -29 -99 0 -5 -11 -15 -23 -21 l-23 -12 20 24 c11 13 2 8
-20 -11 -61 -53 -62 -55 -30 -35 27 17 28 17 16 1 -20 -24 -63 -45 -146 -72
-38 -13 -62 -23 -52 -24 16 0 17 -2 3 -15 -19 -19 -59 -19 -125 1 -175 52
-251 309 -158 536 33 82 65 113 134 133 32 9 63 18 68 20 6 3 51 3 100 2 68
-3 100 -8 131 -25z m1685 -329 c13 -16 12 -17 -3 -4 -17 13 -22 21 -14 21 2 0
10 -8 17 -17z m73 -99 c5 -14 4 -15 -9 -4 -17 14 -19 20 -6 20 5 0 12 -7 15
-16z m1326 -19 c0 -2 -10 -9 -22 -15 -22 -11 -22 -10 -4 4 21 17 26 19 26 11z
m-1951 -44 c10 -7 7 -9 -12 -8 -14 1 -23 5 -20 10 6 9 15 9 32 -2z m66 -161
c3 -5 1 -10 -4 -10 -6 0 -11 5 -11 10 0 6 2 10 4 10 3 0 8 -4 11 -10z m1078
-37 c-7 -2 -19 -2 -25 0 -7 3 -2 5 12 5 14 0 19 -2 13 -5z"/>
<path d="M4662 967 c-17 -20 -34 -109 -30 -159 2 -34 7 -43 22 -43 10 0 28 13
40 28 46 62 15 230 -32 174z"/>
<path d="M4308 403 c18 -18 34 -23 70 -22 l47 1 -53 8 c-29 4 -61 14 -71 21
-9 8 -6 4 7 -8z"/>
<path d="M4790 378 c19 -20 49 -39 65 -42 l30 -6 -30 11 c-16 6 -46 25 -65 43
l-35 31 35 -37z"/>
<path d="M550 1021 c-16 -31 -12 -79 10 -101 24 -24 34 -25 55 -3 13 12 16 27
12 57 -8 59 -55 87 -77 47z"/>
<path d="M630 734 c-36 -10 -54 -109 -24 -138 17 -18 89 -22 99 -6 3 6 15 10
25 10 30 0 35 21 10 42 -24 20 -20 24 11 8 24 -13 25 -2 2 17 -17 14 -17 14 2
8 17 -5 16 -3 -5 20 -21 23 -32 26 -72 23 -25 -2 -44 0 -41 5 2 4 25 7 50 7
34 0 53 -6 70 -22 13 -12 23 -19 23 -15 0 3 -10 15 -22 27 -21 19 -83 26 -128
14z"/>
<path d="M919 473 c-13 -16 -12 -17 4 -4 16 13 21 21 13 21 -2 0 -10 -8 -17
-17z"/>
<path d="M848 434 c-27 -13 -48 -27 -48 -29 0 -3 23 6 50 20 28 14 50 28 50
30 0 7 1 7 -52 -21z"/>
<path d="M889 423 c-13 -16 -12 -17 4 -4 16 13 21 21 13 21 -2 0 -10 -8 -17
-17z"/>
<path d="M386 391 c47 -34 103 -51 164 -50 39 1 36 3 -23 10 -65 9 -138 37
-152 59 -3 5 -11 10 -18 10 -6 0 7 -13 29 -29z"/>
<path d="M745 390 c-13 -6 -15 -9 -5 -9 8 0 22 4 30 9 18 12 2 12 -25 0z"/>
<path d="M668 363 c7 -3 16 -2 19 1 4 3 -2 6 -13 5 -11 0 -14 -3 -6 -6z"/>
<path d="M608 353 c6 -2 18 -2 25 0 6 3 1 5 -13 5 -14 0 -19 -2 -12 -5z"/>
<path d="M3180 746 c0 -2 7 -7 16 -10 8 -3 12 -2 9 4 -6 10 -25 14 -25 6z"/>
<path d="M2972 695 c0 -16 2 -22 5 -12 2 9 2 23 0 30 -3 6 -5 -1 -5 -18z"/>
<path d="M3370 506 c0 -2 8 -10 18 -17 15 -13 16 -12 3 4 -13 16 -21 21 -21
13z"/>
<path d="M3454 435 c27 -19 57 -35 65 -35 9 1 -2 10 -23 20 -22 11 -47 27 -56
35 -9 8 -21 15 -26 15 -5 0 13 -16 40 -35z"/>
<path d="M3098 383 c13 -13 28 -23 35 -23 7 0 3 6 -8 12 -11 6 -27 16 -35 22
-9 6 -5 1 8 -11z"/>
<path d="M2090 461 c0 -6 4 -13 10 -16 6 -3 7 1 4 9 -7 18 -14 21 -14 7z"/>
<path d="M1804 416 c11 -9 29 -16 40 -15 17 1 16 2 -6 9 -14 4 -32 11 -40 15
-7 3 -4 -1 6 -9z"/>
<path d="M1880 410 c-9 -6 -10 -10 -3 -10 6 0 15 5 18 10 8 12 4 12 -15 0z"/>
<path d="M2135 398 c9 -22 72 -60 92 -55 16 4 16 5 -2 6 -11 0 -37 15 -58 32
-20 17 -35 24 -32 17z"/>
<path d="M2660 846 c0 -2 7 -7 16 -10 8 -3 12 -2 9 4 -6 10 -25 14 -25 6z"/>
<path d="M2646 776 c-8 -51 0 -92 19 -100 27 -10 39 27 36 109 -1 25 -6 31
-25 33 -21 1 -25 -4 -30 -42z"/>
<path d="M2395 398 c8 -20 57 -39 75 -28 7 5 2 8 -14 8 -15 0 -36 8 -47 18
-17 15 -19 15 -14 2z"/>
<path d="M2820 370 c8 -5 24 -10 34 -10 26 0 18 6 -19 14 -22 5 -26 4 -15 -4z"/>
<path d="M3835 879 c32 -10 61 -16 63 -14 5 4 -97 35 -112 34 -6 0 16 -9 49
-20z"/>
<path d="M1382 875 c-22 -16 -42 -84 -42 -145 0 -60 34 -130 76 -159 32 -22
36 -23 51 -8 31 31 21 188 -17 272 -22 49 -40 59 -68 40z"/>
<path d="M1203 457 c60 -55 101 -70 187 -70 66 1 169 27 157 39 -2 3 -21 -3
-42 -12 -23 -9 -69 -16 -114 -17 -81 0 -123 15 -192 68 -29 23 -28 21 4 -8z"/>
</g>
</svg>
